<?xml version="1.0" standalone="no"?><!DOCTYPE svg PUBLIC "-//W3C//DTD SVG 1.1//EN" "http://www.w3.org/Graphics/SVG/1.1/DTD/svg11.dtd"><svg t="1518846519496" class="icon" style="" viewBox="0 0 1024 1024" version="1.1" xmlns="http://www.w3.org/2000/svg" p-id="1108" xmlns:xlink="http://www.w3.org/1999/xlink" width="32" height="32"><defs><style type="text/css"></style></defs><path d="M690 620.3h-37.5l-13.3-12.8c46.5-54.1 74.5-124.3 74.5-200.8 0-170.4-138.1-308.5-308.5-308.5S96.7 236.3 96.7 406.7s138.1 308.5 308.5 308.5c76.4 0 146.6-28 200.8-74.5l12.8 13.3v37.5l237.3 236.8 70.7-70.7L690 620.3z m-284.8 0c-118.2 0-213.6-95.4-213.6-213.6S287 193.1 405.2 193.1s213.6 95.4 213.6 213.6-95.4 213.6-213.6 213.6z" p-id="1109" fill="#666666"></path></svg>